
<svg version="1.0" xmlns="http://www.w3.org/2000/svg"
 width="512.000000pt" height="512.000000pt" viewBox="0 0 512.000000 512.000000"
 preserveAspectRatio="xMidYMid meet">

<g transform="translate(0.000000,512.000000) scale(0.100000,-0.100000)"
fill="#000000" stroke="none">
<path d="M2380 5054 c-19 -2 -78 -9 -130 -15 -327 -37 -700 -167 -990 -343
-324 -198 -648 -521 -837 -836 -208 -346 -324 -713 -358 -1127 l-7 -83 2502 0
2502 0 -6 88 c-8 96 -33 280 -45 327 l-7 30 -507 3 -507 2 0 85 0 85 180 0
180 0 0 90 0 90 -357 2 -358 3 -3 88 -3 87 271 0 270 0 0 90 0 90 -90 0 -90 0
0 90 0 90 -180 0 -181 0 3 88 3 87 88 3 87 3 0 89 0 90 -180 0 -180 0 0 85 0
85 90 0 90 0 0 149 0 148 -58 26 c-303 136 -616 205 -962 212 -107 2 -211 1
-230 -1z m-536 -554 c123 -31 228 -92 321 -185 91 -91 144 -175 182 -290 24
-71 27 -95 27 -215 0 -120 -3 -144 -27 -215 -38 -115 -91 -199 -182 -290 -137
-137 -301 -205 -494 -205 -116 0 -205 18 -295 59 -189 85 -324 236 -392 436
-24 71 -27 94 -27 215 0 121 3 144 27 215 33 97 88 193 152 264 90 100 241
188 369 216 94 21 248 18 339 -5z"/>
<path d="M65 2388 c51 -627 295 -1159 729 -1594 213 -212 423 -361 691 -490
451 -217 987 -293 1481 -209 146 25 134 17 134 85 l0 60 -90 0 -90 0 0 90 0
90 265 0 264 0 3 87 3 88 88 3 87 3 0 84 0 85 270 0 270 0 0 90 0 90 90 0 90
0 0 90 0 90 -180 0 -180 0 0 90 0 90 -270 0 -271 0 3 88 3 87 178 3 177 2 0
90 0 90 360 0 361 0 -3 88 -3 87 -177 3 -178 2 0 85 0 85 417 2 417 3 7 30
c12 47 37 231 45 328 l6 87 -2502 0 -2502 0 7 -82z"/>
</g>
</svg>
