<?xml version="1.0" standalone="no"?>
<!DOCTYPE svg PUBLIC "-//W3C//DTD SVG 20010904//EN"
 "http://www.w3.org/TR/2001/REC-SVG-20010904/DTD/svg10.dtd">
<svg version="1.0" xmlns="http://www.w3.org/2000/svg"
 width="512.000000pt" height="512.000000pt" viewBox="0 0 512.000000 512.000000"
 preserveAspectRatio="xMidYMid meet">

<g transform="translate(0.000000,512.000000) scale(0.100000,-0.100000)"
fill="#000000" stroke="none">
<path d="M164 5041 c-99 -45 -133 -167 -71 -260 39 -58 83 -75 215 -79 l112
-4 0 -628 0 -627 -48 -30 c-55 -34 -98 -85 -118 -140 -10 -29 -13 -132 -13
-448 -1 -409 -1 -410 23 -460 44 -96 126 -153 229 -160 l52 -4 -3 -38 c-1 -21
-29 -335 -62 -697 -33 -362 -60 -667 -60 -676 0 -13 189 -105 770 -374 l770
-356 121 0 122 0 -6 178 c-32 947 -404 1706 -1022 2090 -156 96 -348 174 -508
204 l-64 12 -8 806 c-4 443 -4 928 0 1077 l8 271 202 4 202 3 42 28 c116 77
103 251 -23 308 -38 17 -71 19 -431 19 -358 0 -393 -2 -431 -19z"/>
<path d="M2487 5050 c-530 -51 -926 -218 -1230 -518 -270 -265 -418 -593 -471
-1034 l-6 -48 1957 0 1956 0 -6 76 c-21 244 -123 546 -252 746 -268 414 -704
671 -1289 759 -149 23 -514 33 -659 19z m1500 -760 c-14 -114 -90 -216 -201
-267 -53 -24 -73 -28 -156 -28 -82 0 -103 4 -152 27 -109 51 -177 136 -198
248 -11 59 -7 70 18 52 42 -30 137 -74 189 -87 32 -8 100 -15 153 -15 78 0
109 5 176 28 44 16 100 43 125 60 24 17 46 31 48 32 2 0 1 -22 -2 -50z"/>
<path d="M777 3093 c-4 -3 -7 -44 -7 -89 0 -70 3 -83 18 -88 9 -3 364 -66 787
-141 424 -75 778 -138 788 -141 16 -5 17 -75 17 -1290 l0 -1284 360 0 360 0 2
1287 3 1286 795 142 795 141 3 92 3 92 -1959 0 c-1077 0 -1962 -3 -1965 -7z"/>
<path d="M4734 2515 c-683 -178 -1211 -821 -1384 -1685 -39 -193 -59 -356 -65
-520 -3 -74 -8 -161 -10 -192 l-5 -58 124 0 124 0 768 356 c423 196 770 357
771 358 3 3 -166 1714 -173 1744 -6 28 -30 28 -150 -3z"/>
</g>
</svg>
