<?xml version="1.0" standalone="no"?>
<!DOCTYPE svg PUBLIC "-//W3C//DTD SVG 20010904//EN"
 "http://www.w3.org/TR/2001/REC-SVG-20010904/DTD/svg10.dtd">
<svg version="1.0" xmlns="http://www.w3.org/2000/svg"
 width="512.000000pt" height="512.000000pt" viewBox="0 0 512.000000 512.000000"
 preserveAspectRatio="xMidYMid meet">

<g transform="translate(0.000000,512.000000) scale(0.100000,-0.100000)"
fill="#000000" stroke="none">
<path d="M2175 5046 c-83 -20 -147 -56 -210 -120 -171 -171 -177 -432 -16
-608 l48 -52 226 377 c124 207 222 379 218 382 -5 2 -35 11 -67 20 -68 18
-130 18 -199 1z"/>
<path d="M2382 4561 c-122 -203 -222 -374 -222 -380 0 -5 37 -30 83 -55 138
-76 138 -75 -29 -54 -82 11 -443 56 -802 102 l-654 83 -109 -164 c-61 -90
-112 -170 -115 -177 -3 -7 180 -135 480 -335 l484 -323 -64 -85 c-35 -47 -87
-125 -115 -173 l-51 -89 -476 318 c-263 174 -482 320 -488 324 -7 4 -57 -62
-127 -168 l-116 -174 627 -1098 c518 -906 652 -1137 717 -1230 1 -2 92 9 203
24 111 14 205 23 208 20 4 -3 -10 -28 -30 -55 -56 -77 -76 -128 -76 -202 0
-75 29 -148 76 -191 45 -41 235 -164 273 -177 61 -21 151 -15 210 14 51 26 70
45 134 137 l34 47 23 -185 23 -185 36 -10 c124 -36 271 -53 456 -53 208 -1
340 14 503 58 51 14 100 25 108 25 8 0 45 -20 83 -45 l68 -46 119 51 c133 56
293 148 411 237 100 75 268 237 346 333 287 356 447 807 447 1261 l0 98 -60
41 c-64 43 -62 40 -75 165 -32 296 -162 635 -341 885 l-54 76 -133 -18 c-192
-25 -181 -28 -149 30 23 40 27 59 27 127 0 127 -31 170 -204 285 -123 82 -164
100 -232 100 -78 0 -170 -46 -213 -107 l-31 -44 -7 28 c-3 15 -34 199 -69 408
-44 271 -66 385 -78 396 -15 16 -801 506 -825 515 -8 3 -98 -138 -234 -365z
m782 -1861 c254 -65 446 -253 517 -505 26 -92 31 -269 10 -345 -63 -224 -189
-384 -376 -476 -49 -24 -119 -51 -155 -61 -78 -20 -232 -22 -313 -4 -250 55
-453 240 -535 489 -33 100 -37 290 -8 392 56 203 199 375 381 461 146 69 329
88 479 49z m947 -839 c40 -40 39 -82 -1 -123 -27 -26 -36 -30 -67 -25 -52 9
-78 38 -78 88 0 81 88 117 146 60z m418 -76 c56 -29 63 -106 14 -145 -58 -45
-142 -6 -143 65 0 36 23 73 54 85 31 13 44 12 75 -5z m-600 -349 c53 -56 15
-146 -61 -146 -52 0 -88 35 -88 85 0 77 97 116 149 61z m346 -232 c54 -59 16
-144 -64 -144 -32 0 -44 6 -65 31 -14 17 -26 41 -26 54 0 13 12 37 26 54 35
42 93 44 129 5z m-670 -99 c35 -34 34 -93 0 -125 -56 -53 -145 -15 -145 62 0
52 35 88 85 88 25 0 44 -8 60 -25z m251 -369 c37 -31 39 -86 4 -121 -58 -56
-150 -20 -150 60 0 76 87 112 146 61z"/>
<path d="M2850 2524 c-159 -43 -304 -179 -361 -339 -29 -83 -35 -211 -15 -299
62 -263 319 -443 583 -408 310 41 518 323 462 628 -36 196 -196 368 -390 419
-69 19 -208 18 -279 -1z"/>
</g>
</svg>
