<?xml version="1.0" standalone="no"?>
<!DOCTYPE svg PUBLIC "-//W3C//DTD SVG 20010904//EN"
 "http://www.w3.org/TR/2001/REC-SVG-20010904/DTD/svg10.dtd">
<svg version="1.0" xmlns="http://www.w3.org/2000/svg"
 width="512.000000pt" height="512.000000pt" viewBox="0 0 512.000000 512.000000"
 preserveAspectRatio="xMidYMid meet">
    <g transform="translate(0.000000,512.000000) scale(0.100000,-0.100000)"
    fill="#000000" stroke="none">
        <path d="M2351 5049 c-577 -61 -1100 -385 -1373 -852 -86 -148 -168 -377 -184
        -516 -9 -83 -10 -84 -79 -66 -173 45 -360 -10 -496 -145 -75 -74 -131 -177
        -148 -274 -7 -38 -11 -244 -11 -555 0 -407 3 -507 15 -560 45 -189 203 -348
        398 -397 74 -19 219 -14 284 9 l41 15 7 -61 c22 -203 86 -428 151 -525 86
        -130 414 -435 681 -634 180 -134 309 -215 478 -298 198 -98 288 -123 440 -123
        102 0 134 4 210 27 326 98 805 424 1196 815 156 155 206 220 247 317 32 77 69
        228 88 364 15 102 20 120 33 115 94 -37 229 -45 324 -20 190 49 348 209 392
        396 12 53 15 153 15 560 0 311 -4 517 -11 555 -35 196 -204 372 -400 419 -82
        19 -169 19 -244 0 -69 -18 -70 -17 -79 66 -10 84 -58 250 -104 355 -294 679
        -1066 1097 -1871 1013z m256 -1567 c176 -284 484 -479 858 -544 101 -17 146
        -19 280 -15 88 3 177 10 198 16 31 7 39 6 44 -6 9 -23 -5 -859 -17 -1023 -24
        -326 -63 -514 -126 -606 -66 -98 -341 -349 -571 -522 -205 -155 -446 -294
        -590 -342 -81 -26 -175 -26 -256 0 -269 89 -755 434 -1069 758 -86 89 -110
        121 -128 168 -43 116 -71 283 -90 544 -10 141 -14 1023 -4 1032 3 3 22 1 42
        -4 20 -5 109 -12 197 -15 181 -6 331 13 480 62 271 89 509 266 645 478 30 48
        57 86 60 87 3 0 24 -31 47 -68z"/>
        <path d="M1945 2363 c-48 -25 -73 -53 -91 -99 -70 -183 173 -324 300 -174 74
        88 48 216 -54 268 -52 26 -112 28 -155 5z"/>
        <path d="M3010 2358 c-164 -83 -104 -330 80 -330 186 0 245 248 79 332 -50 26
        -104 25 -159 -2z"/>
    </g>
</svg>
